<mxfile host="app.diagrams.net" agent="Mozilla/5.0 (Windows NT 10.0; Win64; x64) AppleWebKit/537.36 (KHTML, like Gecko) Chrome/134.0.0.0 Safari/537.36" version="26.2.13">
  <diagram name="Xu_ly_o_dac_biet" id="Xu_ly_o_dac_biet">
    <mxGraphModel dx="1238" dy="535" grid="1" gridSize="10" guides="1" tooltips="1" connect="1" arrows="1" fold="1" page="1" pageScale="1" pageWidth="827" pageHeight="1169" math="0" shadow="0">
      <root>
        <mxCell id="0" />
        <mxCell id="1" parent="0" />
        <mxCell id="2" value="" style="swimlane;horizontal=0;" parent="1" vertex="1">
          <mxGeometry x="40" y="40" width="600" height="470" as="geometry" />
        </mxCell>
        <mxCell id="3" value="Người chơi" style="swimlane;horizontal=1;" parent="2" vertex="1">
          <mxGeometry y="30" width="240" height="440" as="geometry" />
        </mxCell>
        <mxCell id="2w2XmP5LssQN0S2Df8_C-6" value="Đến ô &quot;Nhà tù&quot;" style="rounded=1;whiteSpace=wrap;html=1;" parent="3" vertex="1">
          <mxGeometry x="60" y="50" width="120" height="60" as="geometry" />
        </mxCell>
        <mxCell id="7lAGA5ChCm8aaJ9sBp4H-19" value="Lắc xúc xắc" style="rounded=0;whiteSpace=wrap;html=1;" vertex="1" parent="3">
          <mxGeometry x="60" y="330" width="120" height="60" as="geometry" />
        </mxCell>
        <mxCell id="4" value="Hệ thống" style="swimlane;horizontal=1;" parent="2" vertex="1">
          <mxGeometry x="240" y="30" width="360" height="440" as="geometry" />
        </mxCell>
        <mxCell id="2w2XmP5LssQN0S2Df8_C-7" value="Cập nhật trạng thái &quot;bị giam&quot;, chờ lượt sau xử lý ra tù" style="rounded=0;whiteSpace=wrap;html=1;" parent="4" vertex="1">
          <mxGeometry x="60" y="50" width="120" height="60" as="geometry" />
        </mxCell>
        <mxCell id="7lAGA5ChCm8aaJ9sBp4H-6" style="edgeStyle=orthogonalEdgeStyle;rounded=0;orthogonalLoop=1;jettySize=auto;html=1;exitX=1;exitY=0.5;exitDx=0;exitDy=0;entryX=0;entryY=0.5;entryDx=0;entryDy=0;" edge="1" parent="4" source="7lAGA5ChCm8aaJ9sBp4H-4" target="7lAGA5ChCm8aaJ9sBp4H-5">
          <mxGeometry relative="1" as="geometry" />
        </mxCell>
        <mxCell id="7lAGA5ChCm8aaJ9sBp4H-10" style="edgeStyle=orthogonalEdgeStyle;rounded=0;orthogonalLoop=1;jettySize=auto;html=1;exitX=0.5;exitY=1;exitDx=0;exitDy=0;" edge="1" parent="4" source="7lAGA5ChCm8aaJ9sBp4H-4" target="7lAGA5ChCm8aaJ9sBp4H-9">
          <mxGeometry relative="1" as="geometry" />
        </mxCell>
        <mxCell id="7lAGA5ChCm8aaJ9sBp4H-4" value="Kiểm tra số lượt bị giam" style="rhombus;whiteSpace=wrap;html=1;" vertex="1" parent="4">
          <mxGeometry x="80" y="130" width="80" height="80" as="geometry" />
        </mxCell>
        <mxCell id="2w2XmP5LssQN0S2Df8_C-11" style="edgeStyle=orthogonalEdgeStyle;rounded=0;orthogonalLoop=1;jettySize=auto;html=1;exitX=0.5;exitY=1;exitDx=0;exitDy=0;entryX=0.5;entryY=0;entryDx=0;entryDy=0;" parent="4" source="2w2XmP5LssQN0S2Df8_C-7" target="7lAGA5ChCm8aaJ9sBp4H-4" edge="1">
          <mxGeometry relative="1" as="geometry">
            <mxPoint x="120" y="130" as="targetPoint" />
          </mxGeometry>
        </mxCell>
        <mxCell id="7lAGA5ChCm8aaJ9sBp4H-5" value="Cập nhật trạng thái &quot;tự do&quot;, lắc xúc xắc" style="rounded=0;whiteSpace=wrap;html=1;" vertex="1" parent="4">
          <mxGeometry x="220" y="140" width="120" height="60" as="geometry" />
        </mxCell>
        <mxCell id="7lAGA5ChCm8aaJ9sBp4H-7" value="Đủ 3 lượt" style="text;html=1;align=center;verticalAlign=middle;resizable=0;points=[];autosize=1;strokeColor=none;fillColor=none;" vertex="1" parent="4">
          <mxGeometry x="150" y="140" width="70" height="30" as="geometry" />
        </mxCell>
        <mxCell id="7lAGA5ChCm8aaJ9sBp4H-11" style="edgeStyle=orthogonalEdgeStyle;rounded=0;orthogonalLoop=1;jettySize=auto;html=1;exitX=1;exitY=0.5;exitDx=0;exitDy=0;entryX=0;entryY=0.5;entryDx=0;entryDy=0;" edge="1" parent="4" source="7lAGA5ChCm8aaJ9sBp4H-9" target="7lAGA5ChCm8aaJ9sBp4H-13">
          <mxGeometry relative="1" as="geometry">
            <mxPoint x="220" y="265" as="targetPoint" />
          </mxGeometry>
        </mxCell>
        <mxCell id="7lAGA5ChCm8aaJ9sBp4H-9" value="Kiểm tra thẻ ra tù,&lt;div&gt;trả tiền&lt;/div&gt;" style="rhombus;whiteSpace=wrap;html=1;" vertex="1" parent="4">
          <mxGeometry x="55" y="240" width="130" height="50" as="geometry" />
        </mxCell>
        <mxCell id="7lAGA5ChCm8aaJ9sBp4H-13" value="Cập nhật trạng thái &quot;tự do&quot;, lắc xúc xắc" style="rounded=0;whiteSpace=wrap;html=1;" vertex="1" parent="4">
          <mxGeometry x="220" y="235" width="120" height="60" as="geometry" />
        </mxCell>
        <mxCell id="7lAGA5ChCm8aaJ9sBp4H-14" value="Có" style="text;html=1;align=center;verticalAlign=middle;resizable=0;points=[];autosize=1;strokeColor=none;fillColor=none;" vertex="1" parent="4">
          <mxGeometry x="180" y="235" width="40" height="30" as="geometry" />
        </mxCell>
        <mxCell id="7lAGA5ChCm8aaJ9sBp4H-15" value="Chưa đủ&lt;br&gt;3 lượt" style="text;html=1;align=center;verticalAlign=middle;resizable=0;points=[];autosize=1;strokeColor=none;fillColor=none;" vertex="1" parent="4">
          <mxGeometry x="110" y="200" width="70" height="40" as="geometry" />
        </mxCell>
        <mxCell id="7lAGA5ChCm8aaJ9sBp4H-24" style="edgeStyle=orthogonalEdgeStyle;rounded=0;orthogonalLoop=1;jettySize=auto;html=1;exitX=1;exitY=0.5;exitDx=0;exitDy=0;entryX=0;entryY=0.5;entryDx=0;entryDy=0;" edge="1" parent="4" source="7lAGA5ChCm8aaJ9sBp4H-22" target="7lAGA5ChCm8aaJ9sBp4H-26">
          <mxGeometry relative="1" as="geometry">
            <mxPoint x="230" y="360" as="targetPoint" />
          </mxGeometry>
        </mxCell>
        <mxCell id="7lAGA5ChCm8aaJ9sBp4H-27" style="edgeStyle=orthogonalEdgeStyle;rounded=0;orthogonalLoop=1;jettySize=auto;html=1;exitX=0.5;exitY=1;exitDx=0;exitDy=0;entryX=0;entryY=0.75;entryDx=0;entryDy=0;" edge="1" parent="4" source="7lAGA5ChCm8aaJ9sBp4H-22" target="2w2XmP5LssQN0S2Df8_C-7">
          <mxGeometry relative="1" as="geometry" />
        </mxCell>
        <mxCell id="7lAGA5ChCm8aaJ9sBp4H-22" value="Kiểm tra giá trị&lt;div&gt;2 xúc xắc&lt;/div&gt;" style="rhombus;whiteSpace=wrap;html=1;" vertex="1" parent="4">
          <mxGeometry x="55" y="330" width="130" height="60" as="geometry" />
        </mxCell>
        <mxCell id="7lAGA5ChCm8aaJ9sBp4H-25" value="Giống" style="text;html=1;align=center;verticalAlign=middle;resizable=0;points=[];autosize=1;strokeColor=none;fillColor=none;" vertex="1" parent="4">
          <mxGeometry x="170" y="330" width="60" height="30" as="geometry" />
        </mxCell>
        <mxCell id="7lAGA5ChCm8aaJ9sBp4H-26" value="Cập nhật trạng thái &quot;tự do&quot;, lắc xúc xắc" style="rounded=0;whiteSpace=wrap;html=1;" vertex="1" parent="4">
          <mxGeometry x="220" y="330" width="120" height="60" as="geometry" />
        </mxCell>
        <mxCell id="7lAGA5ChCm8aaJ9sBp4H-28" value="Không giống" style="text;html=1;align=center;verticalAlign=middle;resizable=0;points=[];autosize=1;strokeColor=none;fillColor=none;" vertex="1" parent="4">
          <mxGeometry x="110" y="388" width="90" height="30" as="geometry" />
        </mxCell>
        <mxCell id="2w2XmP5LssQN0S2Df8_C-5" value="Xử lý ô vào tù" style="text;html=1;align=center;verticalAlign=middle;resizable=0;points=[];autosize=1;strokeColor=none;fillColor=none;" parent="2" vertex="1">
          <mxGeometry x="250" width="100" height="30" as="geometry" />
        </mxCell>
        <mxCell id="2w2XmP5LssQN0S2Df8_C-10" style="edgeStyle=orthogonalEdgeStyle;rounded=0;orthogonalLoop=1;jettySize=auto;html=1;exitX=1;exitY=0.5;exitDx=0;exitDy=0;entryX=0;entryY=0.5;entryDx=0;entryDy=0;" parent="2" source="2w2XmP5LssQN0S2Df8_C-6" target="2w2XmP5LssQN0S2Df8_C-7" edge="1">
          <mxGeometry relative="1" as="geometry" />
        </mxCell>
        <mxCell id="7lAGA5ChCm8aaJ9sBp4H-20" style="edgeStyle=orthogonalEdgeStyle;rounded=0;orthogonalLoop=1;jettySize=auto;html=1;exitX=0.5;exitY=1;exitDx=0;exitDy=0;entryX=0.5;entryY=0;entryDx=0;entryDy=0;" edge="1" parent="2" source="7lAGA5ChCm8aaJ9sBp4H-9" target="7lAGA5ChCm8aaJ9sBp4H-19">
          <mxGeometry relative="1" as="geometry" />
        </mxCell>
        <mxCell id="7lAGA5ChCm8aaJ9sBp4H-23" style="edgeStyle=orthogonalEdgeStyle;rounded=0;orthogonalLoop=1;jettySize=auto;html=1;exitX=1;exitY=0.5;exitDx=0;exitDy=0;entryX=0;entryY=0.5;entryDx=0;entryDy=0;" edge="1" parent="2" source="7lAGA5ChCm8aaJ9sBp4H-19" target="7lAGA5ChCm8aaJ9sBp4H-22">
          <mxGeometry relative="1" as="geometry" />
        </mxCell>
        <mxCell id="7lAGA5ChCm8aaJ9sBp4H-29" value="Không" style="text;html=1;align=center;verticalAlign=middle;resizable=0;points=[];autosize=1;strokeColor=none;fillColor=none;" vertex="1" parent="1">
          <mxGeometry x="390" y="358" width="60" height="30" as="geometry" />
        </mxCell>
      </root>
    </mxGraphModel>
  </diagram>
</mxfile>
